<svg width="91" height="30" viewBox="0 0 91 30" fill="none" xmlns="http://www.w3.org/2000/svg">
<circle r="15" transform="matrix(-1 0 0 1 15 15)" fill="#FFDDCF"/>
<path d="M16.0519 9.28216C16.3623 9.5839 16.3313 10.0365 16.0519 10.3382L12.2949 13.8082L21.2061 13.8082C21.6408 13.8082 21.9513 14.1099 21.9513 14.5323L21.9513 15.4979C21.9513 15.8902 21.6408 16.2221 21.2061 16.2221L12.2949 16.2221L16.0208 19.6618C16.3313 19.9636 16.3313 20.4162 16.0519 20.7179L15.3688 21.3817C15.0583 21.6533 14.5925 21.6533 14.3131 21.3817L8.25841 15.4979C7.97897 15.2263 7.97897 14.7737 8.25841 14.5022L14.3131 8.61834C14.5925 8.34678 15.0583 8.34678 15.3688 8.61834L16.0519 9.28216Z" fill="#FF560D"/>
<path d="M43.4766 22V9.07129H45.5068C46.6846 9.07129 47.5459 9.14746 48.0908 9.2998C48.8643 9.50488 49.4795 9.88574 49.9365 10.4424C50.3936 10.999 50.6221 11.6553 50.6221 12.4111C50.6221 12.9033 50.5166 13.3516 50.3057 13.7559C50.1006 14.1543 49.7637 14.5293 49.2949 14.8809C50.0801 15.25 50.6543 15.7129 51.0176 16.2695C51.3809 16.8203 51.5625 17.4736 51.5625 18.2295C51.5625 18.9561 51.375 19.6182 51 20.2158C50.625 20.8135 50.1416 21.2617 49.5498 21.5605C48.958 21.8535 48.1406 22 47.0977 22H43.4766ZM45.9375 11.418V14.1426H46.4736C47.0713 14.1426 47.5137 14.0166 47.8008 13.7646C48.0938 13.5127 48.2402 13.1699 48.2402 12.7363C48.2402 12.332 48.1025 12.0127 47.8271 11.7783C47.5518 11.5381 47.1328 11.418 46.5703 11.418H45.9375ZM45.9375 16.3398V19.6533H46.5527C47.5723 19.6533 48.2578 19.5244 48.6094 19.2666C48.9668 19.0088 49.1455 18.6338 49.1455 18.1416C49.1455 17.585 48.9375 17.1455 48.5215 16.8232C48.1055 16.501 47.4141 16.3398 46.4473 16.3398H45.9375ZM57.8555 9.07129H60.3516L65.3262 22H62.7686L61.7578 19.3369H56.4844L55.4297 22H52.8721L57.8555 9.07129ZM59.1211 12.499L57.3984 16.9375H60.835L59.1211 12.499ZM79.125 11.3477L77.4023 12.9912C76.2305 11.7549 74.9121 11.1367 73.4473 11.1367C72.2109 11.1367 71.168 11.5586 70.3184 12.4023C69.4746 13.2461 69.0527 14.2861 69.0527 15.5225C69.0527 16.3838 69.2402 17.1484 69.6152 17.8164C69.9902 18.4844 70.5205 19.0088 71.2061 19.3896C71.8916 19.7705 72.6533 19.9609 73.4912 19.9609C74.2061 19.9609 74.8594 19.8291 75.4512 19.5654C76.043 19.2959 76.6934 18.8096 77.4023 18.1064L79.0723 19.8467C78.1172 20.7783 77.2148 21.4258 76.3652 21.7891C75.5156 22.1465 74.5459 22.3252 73.4561 22.3252C71.4463 22.3252 69.7998 21.6895 68.5166 20.418C67.2393 19.1406 66.6006 17.5059 66.6006 15.5137C66.6006 14.2246 66.8906 13.0791 67.4707 12.0771C68.0566 11.0752 68.8916 10.2695 69.9756 9.66016C71.0654 9.05078 72.2373 8.74609 73.4912 8.74609C74.5576 8.74609 75.583 8.97168 76.5674 9.42285C77.5576 9.87402 78.4102 10.5156 79.125 11.3477ZM81.3047 9.07129H83.792V13.5186L87.2988 9.07129H90.2607L85.7432 14.8369L90.7002 22H87.7822L83.792 16.2607V22H81.3047V9.07129Z" fill="#FF560D"/>
</svg>
