<svg width="450" height="82" viewBox="0 0 450 82" fill="none" xmlns="http://www.w3.org/2000/svg">
<path d="M11.0039 36.1055L8.57812 38.25C7.72656 37.0625 6.85938 36.4688 5.97656 36.4688C5.54688 36.4688 5.19531 36.5859 4.92188 36.8203C4.64844 37.0469 4.51172 37.3047 4.51172 37.5938C4.51172 37.8828 4.60938 38.1562 4.80469 38.4141C5.07031 38.7578 5.87109 39.4961 7.20703 40.6289C8.45703 41.6758 9.21484 42.3359 9.48047 42.6094C10.1445 43.2812 10.6133 43.9258 10.8867 44.543C11.168 45.1523 11.3086 45.8203 11.3086 46.5469C11.3086 47.9609 10.8203 49.1289 9.84375 50.0508C8.86719 50.9727 7.59375 51.4336 6.02344 51.4336C4.79688 51.4336 3.72656 51.1328 2.8125 50.5312C1.90625 49.9297 1.12891 48.9844 0.480469 47.6953L3.23438 46.0312C4.0625 47.5547 5.01562 48.3164 6.09375 48.3164C6.65625 48.3164 7.12891 48.1523 7.51172 47.8242C7.89453 47.4961 8.08594 47.1172 8.08594 46.6875C8.08594 46.2969 7.94141 45.9062 7.65234 45.5156C7.36328 45.125 6.72656 44.5273 5.74219 43.7227C3.86719 42.1914 2.65625 41.0117 2.10938 40.1836C1.5625 39.3477 1.28906 38.5156 1.28906 37.6875C1.28906 36.4922 1.74219 35.4688 2.64844 34.6172C3.5625 33.7578 4.6875 33.3281 6.02344 33.3281C6.88281 33.3281 7.69922 33.5273 8.47266 33.9258C9.25391 34.3242 10.0977 35.0508 11.0039 36.1055ZM26.8828 45.5508H16.6055C16.7539 46.457 17.1484 47.1797 17.7891 47.7188C18.4375 48.25 19.2617 48.5156 20.2617 48.5156C21.457 48.5156 22.4844 48.0977 23.3438 47.2617L26.0391 48.5273C25.3672 49.4805 24.5625 50.1875 23.625 50.6484C22.6875 51.1016 21.5742 51.3281 20.2852 51.3281C18.2852 51.3281 16.6562 50.6992 15.3984 49.4414C14.1406 48.1758 13.5117 46.5938 13.5117 44.6953C13.5117 42.75 14.1367 41.1367 15.3867 39.8555C16.6445 38.5664 18.2188 37.9219 20.1094 37.9219C22.1172 37.9219 23.75 38.5664 25.0078 39.8555C26.2656 41.1367 26.8945 42.832 26.8945 44.9414L26.8828 45.5508ZM23.6719 43.0312C23.4609 42.3203 23.043 41.7422 22.418 41.2969C21.8008 40.8516 21.082 40.6289 20.2617 40.6289C19.3711 40.6289 18.5898 40.8789 17.918 41.3789C17.4961 41.6914 17.1055 42.2422 16.7461 43.0312H23.6719ZM29.1445 33.3281H32.3438V51H29.1445V33.3281ZM48.0234 45.5508H37.7461C37.8945 46.457 38.2891 47.1797 38.9297 47.7188C39.5781 48.25 40.4023 48.5156 41.4023 48.5156C42.5977 48.5156 43.625 48.0977 44.4844 47.2617L47.1797 48.5273C46.5078 49.4805 45.7031 50.1875 44.7656 50.6484C43.8281 51.1016 42.7148 51.3281 41.4258 51.3281C39.4258 51.3281 37.7969 50.6992 36.5391 49.4414C35.2812 48.1758 34.6523 46.5938 34.6523 44.6953C34.6523 42.75 35.2773 41.1367 36.5273 39.8555C37.7852 38.5664 39.3594 37.9219 41.25 37.9219C43.2578 37.9219 44.8906 38.5664 46.1484 39.8555C47.4062 41.1367 48.0352 42.832 48.0352 44.9414L48.0234 45.5508ZM44.8125 43.0312C44.6016 42.3203 44.1836 41.7422 43.5586 41.2969C42.9414 40.8516 42.2227 40.6289 41.4023 40.6289C40.5117 40.6289 39.7305 40.8789 39.0586 41.3789C38.6367 41.6914 38.2461 42.2422 37.8867 43.0312H44.8125ZM63.1055 40.8281L60.4453 42.293C59.9453 41.7695 59.4492 41.4062 58.957 41.2031C58.4727 41 57.9023 40.8984 57.2461 40.8984C56.0508 40.8984 55.082 41.2578 54.3398 41.9766C53.6055 42.6875 53.2383 43.6016 53.2383 44.7188C53.2383 45.8047 53.5938 46.6914 54.3047 47.3789C55.0156 48.0664 55.9492 48.4102 57.1055 48.4102C58.5352 48.4102 59.6484 47.9219 60.4453 46.9453L62.9648 48.668C61.5977 50.4414 59.668 51.3281 57.1758 51.3281C54.9336 51.3281 53.1758 50.6641 51.9023 49.3359C50.6367 48.0078 50.0039 46.4531 50.0039 44.6719C50.0039 43.4375 50.3125 42.3008 50.9297 41.2617C51.5469 40.2227 52.4062 39.4062 53.5078 38.8125C54.6172 38.2188 55.8555 37.9219 57.2227 37.9219C58.4883 37.9219 59.625 38.1758 60.6328 38.6836C61.6406 39.1836 62.4648 39.8984 63.1055 40.8281ZM66.3867 33.5508H69.5742V38.25H71.4727V41.0039H69.5742V51H66.3867V41.0039H64.7461V38.25H66.3867V33.5508ZM78.5039 38.25H81.7734L85.0898 46.2539L88.7461 38.25H92.0273L84.0352 55.6641H80.7305L83.3555 50.0508L78.5039 38.25ZM99.832 37.9219C101.035 37.9219 102.164 38.2227 103.219 38.8242C104.281 39.4258 105.109 40.2422 105.703 41.2734C106.297 42.3047 106.594 43.418 106.594 44.6133C106.594 45.8164 106.293 46.9414 105.691 47.9883C105.098 49.0352 104.285 49.8555 103.254 50.4492C102.223 51.0352 101.086 51.3281 99.8438 51.3281C98.0156 51.3281 96.4531 50.6797 95.1562 49.3828C93.8672 48.0781 93.2227 46.4961 93.2227 44.6367C93.2227 42.6445 93.9531 40.9844 95.4141 39.6562C96.6953 38.5 98.168 37.9219 99.832 37.9219ZM99.8789 40.9336C98.8867 40.9336 98.0586 41.2812 97.3945 41.9766C96.7383 42.6641 96.4102 43.5469 96.4102 44.625C96.4102 45.7344 96.7344 46.6328 97.3828 47.3203C98.0391 48.0078 98.8672 48.3516 99.8672 48.3516C100.867 48.3516 101.699 48.0039 102.363 47.3086C103.027 46.6133 103.359 45.7188 103.359 44.625C103.359 43.5312 103.031 42.6445 102.375 41.9648C101.727 41.2773 100.895 40.9336 99.8789 40.9336ZM109.207 38.25H112.441V44.3906C112.441 45.5859 112.523 46.418 112.688 46.8867C112.852 47.3477 113.113 47.707 113.473 47.9648C113.84 48.2227 114.289 48.3516 114.82 48.3516C115.352 48.3516 115.801 48.2266 116.168 47.9766C116.543 47.7188 116.82 47.3438 117 46.8516C117.133 46.4844 117.199 45.6992 117.199 44.4961V38.25H120.41V43.6523C120.41 45.8789 120.234 47.4023 119.883 48.2227C119.453 49.2227 118.82 49.9922 117.984 50.5312C117.148 51.0625 116.086 51.3281 114.797 51.3281C113.398 51.3281 112.266 51.0156 111.398 50.3906C110.539 49.7656 109.934 48.8945 109.582 47.7773C109.332 47.0039 109.207 45.5977 109.207 43.5586V38.25ZM122.883 38.25H125.625V39.8555C125.922 39.2227 126.316 38.7422 126.809 38.4141C127.301 38.0859 127.84 37.9219 128.426 37.9219C128.84 37.9219 129.273 38.0312 129.727 38.25L128.73 41.0039C128.355 40.8164 128.047 40.7227 127.805 40.7227C127.312 40.7227 126.895 41.0273 126.551 41.6367C126.215 42.2461 126.047 43.4414 126.047 45.2227L126.059 45.8438V51H122.883V38.25ZM147.469 33.3281H150.656V51H147.469V49.6523C146.844 50.2461 146.215 50.6758 145.582 50.9414C144.957 51.1992 144.277 51.3281 143.543 51.3281C141.895 51.3281 140.469 50.6914 139.266 49.418C138.062 48.1367 137.461 46.5469 137.461 44.6484C137.461 42.6797 138.043 41.0664 139.207 39.8086C140.371 38.5508 141.785 37.9219 143.449 37.9219C144.215 37.9219 144.934 38.0664 145.605 38.3555C146.277 38.6445 146.898 39.0781 147.469 39.6562V33.3281ZM144.105 40.875C143.113 40.875 142.289 41.2266 141.633 41.9297C140.977 42.625 140.648 43.5195 140.648 44.6133C140.648 45.7148 140.98 46.6211 141.645 47.332C142.316 48.043 143.141 48.3984 144.117 48.3984C145.125 48.3984 145.961 48.0508 146.625 47.3555C147.289 46.6523 147.621 45.7344 147.621 44.6016C147.621 43.4922 147.289 42.5938 146.625 41.9062C145.961 41.2188 145.121 40.875 144.105 40.875ZM159.879 37.9219C161.082 37.9219 162.211 38.2227 163.266 38.8242C164.328 39.4258 165.156 40.2422 165.75 41.2734C166.344 42.3047 166.641 43.418 166.641 44.6133C166.641 45.8164 166.34 46.9414 165.738 47.9883C165.145 49.0352 164.332 49.8555 163.301 50.4492C162.27 51.0352 161.133 51.3281 159.891 51.3281C158.062 51.3281 156.5 50.6797 155.203 49.3828C153.914 48.0781 153.27 46.4961 153.27 44.6367C153.27 42.6445 154 40.9844 155.461 39.6562C156.742 38.5 158.215 37.9219 159.879 37.9219ZM159.926 40.9336C158.934 40.9336 158.105 41.2812 157.441 41.9766C156.785 42.6641 156.457 43.5469 156.457 44.625C156.457 45.7344 156.781 46.6328 157.43 47.3203C158.086 48.0078 158.914 48.3516 159.914 48.3516C160.914 48.3516 161.746 48.0039 162.41 47.3086C163.074 46.6133 163.406 45.7188 163.406 44.625C163.406 43.5312 163.078 42.6445 162.422 41.9648C161.773 41.2773 160.941 40.9336 159.926 40.9336ZM169.266 38.25H172.453V39.5508C173.18 38.9414 173.836 38.5195 174.422 38.2852C175.016 38.043 175.621 37.9219 176.238 37.9219C177.504 37.9219 178.578 38.3633 179.461 39.2461C180.203 39.9961 180.574 41.1055 180.574 42.5742V51H177.41V45.4102C177.41 43.8867 177.34 42.875 177.199 42.375C177.066 41.875 176.828 41.4961 176.484 41.2383C176.148 40.9727 175.73 40.8398 175.23 40.8398C174.582 40.8398 174.023 41.0586 173.555 41.4961C173.094 41.9258 172.773 42.5234 172.594 43.2891C172.5 43.6875 172.453 44.5508 172.453 45.8789V51H169.266V38.25ZM193.102 38.25H196.289V51H193.102V49.6523C192.477 50.2461 191.848 50.6758 191.215 50.9414C190.59 51.1992 189.91 51.3281 189.176 51.3281C187.527 51.3281 186.102 50.6914 184.898 49.418C183.695 48.1367 183.094 46.5469 183.094 44.6484C183.094 42.6797 183.676 41.0664 184.84 39.8086C186.004 38.5508 187.418 37.9219 189.082 37.9219C189.848 37.9219 190.566 38.0664 191.238 38.3555C191.91 38.6445 192.531 39.0781 193.102 39.6562V38.25ZM189.738 40.875C188.746 40.875 187.922 41.2266 187.266 41.9297C186.609 42.625 186.281 43.5195 186.281 44.6133C186.281 45.7148 186.613 46.6211 187.277 47.332C187.949 48.043 188.773 48.3984 189.75 48.3984C190.758 48.3984 191.594 48.0508 192.258 47.3555C192.922 46.6523 193.254 45.7344 193.254 44.6016C193.254 43.4922 192.922 42.5938 192.258 41.9062C191.594 41.2188 190.754 40.875 189.738 40.875ZM199.91 33.5508H203.098V38.25H204.996V41.0039H203.098V51H199.91V41.0039H198.27V38.25H199.91V33.5508ZM207.973 33C208.535 33 209.016 33.2031 209.414 33.6094C209.82 34.0156 210.023 34.5078 210.023 35.0859C210.023 35.6562 209.824 36.1445 209.426 36.5508C209.027 36.9492 208.551 37.1484 207.996 37.1484C207.426 37.1484 206.938 36.9453 206.531 36.5391C206.133 36.125 205.934 35.625 205.934 35.0391C205.934 34.4766 206.133 33.9961 206.531 33.5977C206.93 33.1992 207.41 33 207.973 33ZM206.367 38.25H209.578V51H206.367V38.25ZM218.473 37.9219C219.676 37.9219 220.805 38.2227 221.859 38.8242C222.922 39.4258 223.75 40.2422 224.344 41.2734C224.938 42.3047 225.234 43.418 225.234 44.6133C225.234 45.8164 224.934 46.9414 224.332 47.9883C223.738 49.0352 222.926 49.8555 221.895 50.4492C220.863 51.0352 219.727 51.3281 218.484 51.3281C216.656 51.3281 215.094 50.6797 213.797 49.3828C212.508 48.0781 211.863 46.4961 211.863 44.6367C211.863 42.6445 212.594 40.9844 214.055 39.6562C215.336 38.5 216.809 37.9219 218.473 37.9219ZM218.52 40.9336C217.527 40.9336 216.699 41.2812 216.035 41.9766C215.379 42.6641 215.051 43.5469 215.051 44.625C215.051 45.7344 215.375 46.6328 216.023 47.3203C216.68 48.0078 217.508 48.3516 218.508 48.3516C219.508 48.3516 220.34 48.0039 221.004 47.3086C221.668 46.6133 222 45.7188 222 44.625C222 43.5312 221.672 42.6445 221.016 41.9648C220.367 41.2773 219.535 40.9336 218.52 40.9336ZM227.859 38.25H231.047V39.5508C231.773 38.9414 232.43 38.5195 233.016 38.2852C233.609 38.043 234.215 37.9219 234.832 37.9219C236.098 37.9219 237.172 38.3633 238.055 39.2461C238.797 39.9961 239.168 41.1055 239.168 42.5742V51H236.004V45.4102C236.004 43.8867 235.934 42.875 235.793 42.375C235.66 41.875 235.422 41.4961 235.078 41.2383C234.742 40.9727 234.324 40.8398 233.824 40.8398C233.176 40.8398 232.617 41.0586 232.148 41.4961C231.688 41.9258 231.367 42.5234 231.188 43.2891C231.094 43.6875 231.047 44.5508 231.047 45.8789V51H227.859V38.25ZM258.422 38.25H261.609V51H258.422V49.6523C257.797 50.2461 257.168 50.6758 256.535 50.9414C255.91 51.1992 255.23 51.3281 254.496 51.3281C252.848 51.3281 251.422 50.6914 250.219 49.418C249.016 48.1367 248.414 46.5469 248.414 44.6484C248.414 42.6797 248.996 41.0664 250.16 39.8086C251.324 38.5508 252.738 37.9219 254.402 37.9219C255.168 37.9219 255.887 38.0664 256.559 38.3555C257.23 38.6445 257.852 39.0781 258.422 39.6562V38.25ZM255.059 40.875C254.066 40.875 253.242 41.2266 252.586 41.9297C251.93 42.625 251.602 43.5195 251.602 44.6133C251.602 45.7148 251.934 46.6211 252.598 47.332C253.27 48.043 254.094 48.3984 255.07 48.3984C256.078 48.3984 256.914 48.0508 257.578 47.3555C258.242 46.6523 258.574 45.7344 258.574 44.6016C258.574 43.4922 258.242 42.5938 257.578 41.9062C256.914 41.2188 256.074 40.875 255.059 40.875ZM264.82 38.25H268.031V39.7148C268.578 39.1133 269.184 38.6641 269.848 38.3672C270.52 38.0703 271.25 37.9219 272.039 37.9219C272.836 37.9219 273.555 38.1172 274.195 38.5078C274.836 38.8984 275.352 39.4688 275.742 40.2188C276.25 39.4688 276.871 38.8984 277.605 38.5078C278.348 38.1172 279.156 37.9219 280.031 37.9219C280.938 37.9219 281.734 38.1328 282.422 38.5547C283.109 38.9766 283.602 39.5273 283.898 40.207C284.203 40.8867 284.355 41.9922 284.355 43.5234V51H281.133V44.5312C281.133 43.0859 280.953 42.1094 280.594 41.6016C280.234 41.0859 279.695 40.8281 278.977 40.8281C278.43 40.8281 277.938 40.9844 277.5 41.2969C277.07 41.6094 276.75 42.043 276.539 42.5977C276.328 43.1445 276.223 44.0273 276.223 45.2461V51H273V44.8242C273 43.6836 272.914 42.8594 272.742 42.3516C272.578 41.8359 272.328 41.4531 271.992 41.2031C271.656 40.9531 271.25 40.8281 270.773 40.8281C270.242 40.8281 269.758 40.9883 269.32 41.3086C268.891 41.6211 268.566 42.0625 268.348 42.6328C268.137 43.2031 268.031 44.1016 268.031 45.3281V51H264.82V38.25ZM293.402 37.9219C294.605 37.9219 295.734 38.2227 296.789 38.8242C297.852 39.4258 298.68 40.2422 299.273 41.2734C299.867 42.3047 300.164 43.418 300.164 44.6133C300.164 45.8164 299.863 46.9414 299.262 47.9883C298.668 49.0352 297.855 49.8555 296.824 50.4492C295.793 51.0352 294.656 51.3281 293.414 51.3281C291.586 51.3281 290.023 50.6797 288.727 49.3828C287.438 48.0781 286.793 46.4961 286.793 44.6367C286.793 42.6445 287.523 40.9844 288.984 39.6562C290.266 38.5 291.738 37.9219 293.402 37.9219ZM293.449 40.9336C292.457 40.9336 291.629 41.2812 290.965 41.9766C290.309 42.6641 289.98 43.5469 289.98 44.625C289.98 45.7344 290.305 46.6328 290.953 47.3203C291.609 48.0078 292.438 48.3516 293.438 48.3516C294.438 48.3516 295.27 48.0039 295.934 47.3086C296.598 46.6133 296.93 45.7188 296.93 44.625C296.93 43.5312 296.602 42.6445 295.945 41.9648C295.297 41.2773 294.465 40.9336 293.449 40.9336ZM302.777 38.25H306.012V44.3906C306.012 45.5859 306.094 46.418 306.258 46.8867C306.422 47.3477 306.684 47.707 307.043 47.9648C307.41 48.2227 307.859 48.3516 308.391 48.3516C308.922 48.3516 309.371 48.2266 309.738 47.9766C310.113 47.7188 310.391 47.3438 310.57 46.8516C310.703 46.4844 310.77 45.6992 310.77 44.4961V38.25H313.98V43.6523C313.98 45.8789 313.805 47.4023 313.453 48.2227C313.023 49.2227 312.391 49.9922 311.555 50.5312C310.719 51.0625 309.656 51.3281 308.367 51.3281C306.969 51.3281 305.836 51.0156 304.969 50.3906C304.109 49.7656 303.504 48.8945 303.152 47.7773C302.902 47.0039 302.777 45.5977 302.777 43.5586V38.25ZM317.203 38.25H320.391V39.5508C321.117 38.9414 321.773 38.5195 322.359 38.2852C322.953 38.043 323.559 37.9219 324.176 37.9219C325.441 37.9219 326.516 38.3633 327.398 39.2461C328.141 39.9961 328.512 41.1055 328.512 42.5742V51H325.348V45.4102C325.348 43.8867 325.277 42.875 325.137 42.375C325.004 41.875 324.766 41.4961 324.422 41.2383C324.086 40.9727 323.668 40.8398 323.168 40.8398C322.52 40.8398 321.961 41.0586 321.492 41.4961C321.031 41.9258 320.711 42.5234 320.531 43.2891C320.438 43.6875 320.391 44.5508 320.391 45.8789V51H317.203V38.25ZM332.004 33.5508H335.191V38.25H337.09V41.0039H335.191V51H332.004V41.0039H330.363V38.25H332.004V33.5508Z" fill="#201B15"/>
<circle cx="409" cy="41" r="41" fill="#FFDDCF"/>
<path d="M406.125 25.3711C405.276 26.1959 405.361 27.433 406.125 28.2577L416.394 37.7423L392.037 37.7423C390.849 37.7423 390 38.567 390 39.7216L390 42.3608C390 43.433 390.849 44.3402 392.037 44.3402L416.394 44.3402L406.21 53.7423C405.361 54.567 405.361 55.8041 406.125 56.6289L407.992 58.4433C408.841 59.1856 410.114 59.1856 410.878 58.4433L427.427 42.3608C428.191 41.6186 428.191 40.3814 427.427 39.6392L410.878 23.5567C410.114 22.8144 408.841 22.8144 407.992 23.5567L406.125 25.3711Z" fill="#FF560D"/>
</svg>
