<svg width="723" height="76" viewBox="0 0 723 76" fill="none" xmlns="http://www.w3.org/2000/svg">
<rect y="64" width="720" height="12" rx="6" fill="#FFF0D2"/>
<rect y="64" width="641" height="12" rx="6" fill="#FFB31E"/>
<path d="M569.176 11.7539L566.914 13.957C565.883 12.8945 564.863 12.3633 563.855 12.3633C563.262 12.3633 562.777 12.5234 562.402 12.8438C562.035 13.1562 561.852 13.5195 561.852 13.9336C561.852 14.2852 562.016 14.6328 562.344 14.9766C562.664 15.3281 563.312 15.7031 564.289 16.1016C566.023 16.8203 567.211 17.4336 567.852 17.9414C568.492 18.4492 568.984 19.0586 569.328 19.7695C569.672 20.4805 569.844 21.2773 569.844 22.1602C569.844 23.043 569.66 23.8594 569.293 24.6094C568.926 25.3594 568.453 25.9531 567.875 26.3906C567.297 26.8281 566.465 27.1602 565.379 27.3867V30.5156H563.176V27.457C562.152 27.3398 561.281 27.082 560.562 26.6836C559.578 26.1367 558.664 25.4102 557.82 24.5039L560.047 22.2188C561.477 23.7422 562.859 24.5039 564.195 24.5039C564.875 24.5039 565.457 24.2695 565.941 23.8008C566.434 23.3242 566.68 22.7656 566.68 22.125C566.68 21.5859 566.523 21.1133 566.211 20.707C565.891 20.3008 565.273 19.8867 564.359 19.4648C562.5 18.6055 561.242 17.9258 560.586 17.4258C559.93 16.918 559.438 16.3516 559.109 15.7266C558.789 15.0938 558.629 14.4219 558.629 13.7109C558.629 12.5312 559.059 11.5234 559.918 10.6875C560.777 9.84375 561.863 9.39062 563.176 9.32812V8.15625H565.379V9.48047C566.137 9.66016 566.777 9.90234 567.301 10.207C567.832 10.5117 568.457 11.0273 569.176 11.7539ZM574.402 9.76172H579.312V27H576.055V12.8438H572.504L574.402 9.76172ZM585.348 9.76172H596.656V11.4844L588.875 27.4336L586.098 26.0859L592.566 12.8438H585.348V9.76172ZM600.512 23.7539L602.797 24.9023L599.902 29.8477L598.309 29.0859L600.512 23.7539ZM614.34 17.6602C615.121 18.1602 615.723 18.8047 616.145 19.5938C616.574 20.375 616.789 21.2227 616.789 22.1367C616.789 23.1289 616.539 24.0469 616.039 24.8906C615.547 25.7344 614.883 26.3711 614.047 26.8008C613.211 27.2227 612.145 27.4336 610.848 27.4336C609.457 27.4336 608.352 27.2305 607.531 26.8242C606.711 26.4102 606.055 25.7891 605.562 24.9609C605.07 24.125 604.824 23.1836 604.824 22.1367C604.824 21.2305 605.02 20.4062 605.41 19.6641C605.809 18.9141 606.402 18.2461 607.191 17.6602C606.676 17.1367 606.285 16.582 606.02 15.9961C605.762 15.4023 605.633 14.7773 605.633 14.1211C605.633 13.2227 605.848 12.4062 606.277 11.6719C606.715 10.9297 607.324 10.3555 608.105 9.94922C608.887 9.53516 609.789 9.32812 610.812 9.32812C611.82 9.32812 612.707 9.53516 613.473 9.94922C614.238 10.3633 614.84 10.9531 615.277 11.7188C615.723 12.4766 615.945 13.293 615.945 14.168C615.945 14.7852 615.828 15.3594 615.594 15.8906C615.367 16.4141 614.949 17.0039 614.34 17.6602ZM610.707 12.4922C610.168 12.4922 609.723 12.6719 609.371 13.0312C609.027 13.3828 608.855 13.8359 608.855 14.3906C608.855 14.9453 609.039 15.4102 609.406 15.7852C609.773 16.1602 610.227 16.3477 610.766 16.3477C611.32 16.3477 611.773 16.1641 612.125 15.7969C612.484 15.4297 612.664 14.9531 612.664 14.3672C612.664 13.8125 612.484 13.3633 612.125 13.0195C611.766 12.668 611.293 12.4922 610.707 12.4922ZM610.836 19.4062C610.047 19.4062 609.383 19.6484 608.844 20.1328C608.305 20.6094 608.035 21.1797 608.035 21.8438C608.035 22.5391 608.289 23.1289 608.797 23.6133C609.305 24.0898 609.973 24.3281 610.801 24.3281C611.637 24.3281 612.301 24.1055 612.793 23.6602C613.293 23.207 613.543 22.625 613.543 21.9141C613.543 21.2031 613.285 20.6094 612.77 20.1328C612.254 19.6484 611.609 19.4062 610.836 19.4062ZM621.488 9.76172H626.398V27H623.141V12.8438H619.59L621.488 9.76172ZM635 9.76172H643.074V12.7852H637.449L636.746 15.9258C636.941 15.8711 637.133 15.832 637.32 15.8086C637.508 15.7773 637.688 15.7617 637.859 15.7617C639.422 15.7617 640.719 16.2969 641.75 17.3672C642.789 18.4297 643.309 19.793 643.309 21.457C643.309 23.1367 642.734 24.5547 641.586 25.7109C640.445 26.8594 639.055 27.4336 637.414 27.4336C635.945 27.4336 634.684 27.0156 633.629 26.1797C632.574 25.3438 631.883 24.1992 631.555 22.7461H635C635.266 23.2852 635.613 23.6953 636.043 23.9766C636.48 24.25 636.961 24.3867 637.484 24.3867C638.211 24.3867 638.828 24.125 639.336 23.6016C639.844 23.0781 640.098 22.4062 640.098 21.5859C640.098 20.7891 639.859 20.1367 639.383 19.6289C638.914 19.1133 638.344 18.8555 637.672 18.8555C637.312 18.8555 636.957 18.9453 636.605 19.125C636.262 19.3047 635.922 19.5742 635.586 19.9336L632.914 19.3359L635 9.76172ZM652.039 14.25H654.781V15.8555C655.078 15.2227 655.473 14.7422 655.965 14.4141C656.457 14.0859 656.996 13.9219 657.582 13.9219C657.996 13.9219 658.43 14.0312 658.883 14.25L657.887 17.0039C657.512 16.8164 657.203 16.7227 656.961 16.7227C656.469 16.7227 656.051 17.0273 655.707 17.6367C655.371 18.2461 655.203 19.4414 655.203 21.2227L655.215 21.8438V27H652.039V14.25ZM669.898 14.25H673.086V27H669.898V25.6523C669.273 26.2461 668.645 26.6758 668.012 26.9414C667.387 27.1992 666.707 27.3281 665.973 27.3281C664.324 27.3281 662.898 26.6914 661.695 25.418C660.492 24.1367 659.891 22.5469 659.891 20.6484C659.891 18.6797 660.473 17.0664 661.637 15.8086C662.801 14.5508 664.215 13.9219 665.879 13.9219C666.645 13.9219 667.363 14.0664 668.035 14.3555C668.707 14.6445 669.328 15.0781 669.898 15.6562V14.25ZM666.535 16.875C665.543 16.875 664.719 17.2266 664.062 17.9297C663.406 18.625 663.078 19.5195 663.078 20.6133C663.078 21.7148 663.41 22.6211 664.074 23.332C664.746 24.043 665.57 24.3984 666.547 24.3984C667.555 24.3984 668.391 24.0508 669.055 23.3555C669.719 22.6523 670.051 21.7344 670.051 20.6016C670.051 19.4922 669.719 18.5938 669.055 17.9062C668.391 17.2188 667.551 16.875 666.535 16.875ZM677.574 9C678.137 9 678.617 9.20312 679.016 9.60938C679.422 10.0156 679.625 10.5078 679.625 11.0859C679.625 11.6562 679.426 12.1445 679.027 12.5508C678.629 12.9492 678.152 13.1484 677.598 13.1484C677.027 13.1484 676.539 12.9453 676.133 12.5391C675.734 12.125 675.535 11.625 675.535 11.0391C675.535 10.4766 675.734 9.99609 676.133 9.59766C676.531 9.19922 677.012 9 677.574 9ZM675.969 14.25H679.18V27H675.969V14.25ZM689.891 16.0312L687.91 18.0117C687.105 17.2148 686.375 16.8164 685.719 16.8164C685.359 16.8164 685.078 16.8945 684.875 17.0508C684.672 17.1992 684.57 17.3867 684.57 17.6133C684.57 17.7852 684.633 17.9453 684.758 18.0938C684.891 18.2344 685.211 18.4297 685.719 18.6797L686.891 19.2656C688.125 19.875 688.973 20.4961 689.434 21.1289C689.895 21.7617 690.125 22.5039 690.125 23.3555C690.125 24.4883 689.707 25.4336 688.871 26.1914C688.043 26.9492 686.93 27.3281 685.531 27.3281C683.672 27.3281 682.188 26.6016 681.078 25.1484L683.047 23.0039C683.422 23.4414 683.859 23.7969 684.359 24.0703C684.867 24.3359 685.316 24.4688 685.707 24.4688C686.129 24.4688 686.469 24.3672 686.727 24.1641C686.984 23.9609 687.113 23.7266 687.113 23.4609C687.113 22.9688 686.648 22.4883 685.719 22.0195L684.641 21.4805C682.578 20.4414 681.547 19.1406 681.547 17.5781C681.547 16.5703 681.934 15.7109 682.707 15C683.488 14.2812 684.484 13.9219 685.695 13.9219C686.523 13.9219 687.301 14.1055 688.027 14.4727C688.762 14.832 689.383 15.3516 689.891 16.0312ZM705.43 21.5508H695.152C695.301 22.457 695.695 23.1797 696.336 23.7188C696.984 24.25 697.809 24.5156 698.809 24.5156C700.004 24.5156 701.031 24.0977 701.891 23.2617L704.586 24.5273C703.914 25.4805 703.109 26.1875 702.172 26.6484C701.234 27.1016 700.121 27.3281 698.832 27.3281C696.832 27.3281 695.203 26.6992 693.945 25.4414C692.688 24.1758 692.059 22.5938 692.059 20.6953C692.059 18.75 692.684 17.1367 693.934 15.8555C695.191 14.5664 696.766 13.9219 698.656 13.9219C700.664 13.9219 702.297 14.5664 703.555 15.8555C704.812 17.1367 705.441 18.832 705.441 20.9414L705.43 21.5508ZM702.219 19.0312C702.008 18.3203 701.59 17.7422 700.965 17.2969C700.348 16.8516 699.629 16.6289 698.809 16.6289C697.918 16.6289 697.137 16.8789 696.465 17.3789C696.043 17.6914 695.652 18.2422 695.293 19.0312H702.219ZM717.453 9.32812H720.641V27H717.453V25.6523C716.828 26.2461 716.199 26.6758 715.566 26.9414C714.941 27.1992 714.262 27.3281 713.527 27.3281C711.879 27.3281 710.453 26.6914 709.25 25.418C708.047 24.1367 707.445 22.5469 707.445 20.6484C707.445 18.6797 708.027 17.0664 709.191 15.8086C710.355 14.5508 711.77 13.9219 713.434 13.9219C714.199 13.9219 714.918 14.0664 715.59 14.3555C716.262 14.6445 716.883 15.0781 717.453 15.6562V9.32812ZM714.09 16.875C713.098 16.875 712.273 17.2266 711.617 17.9297C710.961 18.625 710.633 19.5195 710.633 20.6133C710.633 21.7148 710.965 22.6211 711.629 23.332C712.301 24.043 713.125 24.3984 714.102 24.3984C715.109 24.3984 715.945 24.0508 716.609 23.3555C717.273 22.6523 717.605 21.7344 717.605 20.6016C717.605 19.4922 717.273 18.5938 716.609 17.9062C715.945 17.2188 715.105 16.875 714.09 16.875Z" fill="black"/>
<path d="M633.945 39C633.101 39 632.679 39.9844 633.288 40.5937L639.288 46.5937C639.663 46.9687 640.273 46.9687 640.648 46.5937L646.648 40.5937C647.257 39.9844 646.835 39 645.991 39L633.945 39Z" fill="black"/>
</svg>
