<svg width="720" height="75" viewBox="0 0 720 75" fill="none" xmlns="http://www.w3.org/2000/svg">
<rect y="63" width="720" height="12" rx="6" fill="#FFF0D2"/>
<rect y="63" width="427" height="12" rx="6" fill="#FFB31E"/>
<path d="M363.176 11.7539L360.914 13.957C359.883 12.8945 358.863 12.3633 357.855 12.3633C357.262 12.3633 356.777 12.5234 356.402 12.8438C356.035 13.1562 355.852 13.5195 355.852 13.9336C355.852 14.2852 356.016 14.6328 356.344 14.9766C356.664 15.3281 357.312 15.7031 358.289 16.1016C360.023 16.8203 361.211 17.4336 361.852 17.9414C362.492 18.4492 362.984 19.0586 363.328 19.7695C363.672 20.4805 363.844 21.2773 363.844 22.1602C363.844 23.043 363.66 23.8594 363.293 24.6094C362.926 25.3594 362.453 25.9531 361.875 26.3906C361.297 26.8281 360.465 27.1602 359.379 27.3867V30.5156H357.176V27.457C356.152 27.3398 355.281 27.082 354.562 26.6836C353.578 26.1367 352.664 25.4102 351.82 24.5039L354.047 22.2188C355.477 23.7422 356.859 24.5039 358.195 24.5039C358.875 24.5039 359.457 24.2695 359.941 23.8008C360.434 23.3242 360.68 22.7656 360.68 22.125C360.68 21.5859 360.523 21.1133 360.211 20.707C359.891 20.3008 359.273 19.8867 358.359 19.4648C356.5 18.6055 355.242 17.9258 354.586 17.4258C353.93 16.918 353.438 16.3516 353.109 15.7266C352.789 15.0938 352.629 14.4219 352.629 13.7109C352.629 12.5312 353.059 11.5234 353.918 10.6875C354.777 9.84375 355.863 9.39062 357.176 9.32812V8.15625H359.379V9.48047C360.137 9.66016 360.777 9.90234 361.301 10.207C361.832 10.5117 362.457 11.0273 363.176 11.7539ZM374.707 17.6602C375.488 18.1602 376.09 18.8047 376.512 19.5938C376.941 20.375 377.156 21.2227 377.156 22.1367C377.156 23.1289 376.906 24.0469 376.406 24.8906C375.914 25.7344 375.25 26.3711 374.414 26.8008C373.578 27.2227 372.512 27.4336 371.215 27.4336C369.824 27.4336 368.719 27.2305 367.898 26.8242C367.078 26.4102 366.422 25.7891 365.93 24.9609C365.438 24.125 365.191 23.1836 365.191 22.1367C365.191 21.2305 365.387 20.4062 365.777 19.6641C366.176 18.9141 366.77 18.2461 367.559 17.6602C367.043 17.1367 366.652 16.582 366.387 15.9961C366.129 15.4023 366 14.7773 366 14.1211C366 13.2227 366.215 12.4062 366.645 11.6719C367.082 10.9297 367.691 10.3555 368.473 9.94922C369.254 9.53516 370.156 9.32812 371.18 9.32812C372.188 9.32812 373.074 9.53516 373.84 9.94922C374.605 10.3633 375.207 10.9531 375.645 11.7188C376.09 12.4766 376.312 13.293 376.312 14.168C376.312 14.7852 376.195 15.3594 375.961 15.8906C375.734 16.4141 375.316 17.0039 374.707 17.6602ZM371.074 12.4922C370.535 12.4922 370.09 12.6719 369.738 13.0312C369.395 13.3828 369.223 13.8359 369.223 14.3906C369.223 14.9453 369.406 15.4102 369.773 15.7852C370.141 16.1602 370.594 16.3477 371.133 16.3477C371.688 16.3477 372.141 16.1641 372.492 15.7969C372.852 15.4297 373.031 14.9531 373.031 14.3672C373.031 13.8125 372.852 13.3633 372.492 13.0195C372.133 12.668 371.66 12.4922 371.074 12.4922ZM371.203 19.4062C370.414 19.4062 369.75 19.6484 369.211 20.1328C368.672 20.6094 368.402 21.1797 368.402 21.8438C368.402 22.5391 368.656 23.1289 369.164 23.6133C369.672 24.0898 370.34 24.3281 371.168 24.3281C372.004 24.3281 372.668 24.1055 373.16 23.6602C373.66 23.207 373.91 22.625 373.91 21.9141C373.91 21.2031 373.652 20.6094 373.137 20.1328C372.621 19.6484 371.977 19.4062 371.203 19.4062ZM381.059 23.7539L383.344 24.9023L380.449 29.8477L378.855 29.0859L381.059 23.7539ZM388.816 15.3164H385.617C385.703 13.457 386.285 11.9961 387.363 10.9336C388.449 9.86328 389.84 9.32812 391.535 9.32812C392.582 9.32812 393.504 9.55078 394.301 9.99609C395.105 10.4336 395.746 11.0703 396.223 11.9062C396.707 12.7344 396.949 13.5781 396.949 14.4375C396.949 15.4609 396.656 16.5625 396.07 17.7422C395.492 18.9219 394.43 20.3164 392.883 21.9258L390.949 23.9648H397.09V27H385.148V25.4297L390.48 19.9922C391.77 18.6875 392.625 17.6406 393.047 16.8516C393.477 16.0547 393.691 15.3359 393.691 14.6953C393.691 14.0312 393.469 13.4844 393.023 13.0547C392.586 12.6172 392.02 12.3984 391.324 12.3984C390.621 12.3984 390.035 12.6602 389.566 13.1836C389.098 13.707 388.848 14.418 388.816 15.3164ZM402.094 9.76172H410.168V12.7852H404.543L403.84 15.9258C404.035 15.8711 404.227 15.832 404.414 15.8086C404.602 15.7773 404.781 15.7617 404.953 15.7617C406.516 15.7617 407.812 16.2969 408.844 17.3672C409.883 18.4297 410.402 19.793 410.402 21.457C410.402 23.1367 409.828 24.5547 408.68 25.7109C407.539 26.8594 406.148 27.4336 404.508 27.4336C403.039 27.4336 401.777 27.0156 400.723 26.1797C399.668 25.3438 398.977 24.1992 398.648 22.7461H402.094C402.359 23.2852 402.707 23.6953 403.137 23.9766C403.574 24.25 404.055 24.3867 404.578 24.3867C405.305 24.3867 405.922 24.125 406.43 23.6016C406.938 23.0781 407.191 22.4062 407.191 21.5859C407.191 20.7891 406.953 20.1367 406.477 19.6289C406.008 19.1133 405.438 18.8555 404.766 18.8555C404.406 18.8555 404.051 18.9453 403.699 19.125C403.355 19.3047 403.016 19.5742 402.68 19.9336L400.008 19.3359L402.094 9.76172ZM418.207 9.32812C419.465 9.32812 420.547 9.63672 421.453 10.2539C422.367 10.8711 423.07 11.8164 423.562 13.0898C424.062 14.3555 424.312 16.1211 424.312 18.3867C424.312 20.6758 424.059 22.457 423.551 23.7305C423.051 25.0039 422.375 25.9414 421.523 26.543C420.672 27.1367 419.598 27.4336 418.301 27.4336C417.004 27.4336 415.914 27.1328 415.031 26.5312C414.148 25.9297 413.457 25.0156 412.957 23.7891C412.457 22.5625 412.207 20.8164 412.207 18.5508C412.207 15.3867 412.695 13.0938 413.672 11.6719C414.758 10.1094 416.27 9.32812 418.207 9.32812ZM418.289 12.4453C417.734 12.4453 417.242 12.625 416.812 12.9844C416.383 13.3359 416.055 13.9453 415.828 14.8125C415.602 15.6797 415.488 16.9492 415.488 18.6211C415.488 20.8008 415.746 22.3086 416.262 23.1445C416.785 23.9727 417.461 24.3867 418.289 24.3867C419.086 24.3867 419.719 23.9922 420.188 23.2031C420.758 22.25 421.043 20.6562 421.043 18.4219C421.043 16.1562 420.785 14.5938 420.27 13.7344C419.762 12.875 419.102 12.4453 418.289 12.4453ZM432.586 14.25H435.328V15.8555C435.625 15.2227 436.02 14.7422 436.512 14.4141C437.004 14.0859 437.543 13.9219 438.129 13.9219C438.543 13.9219 438.977 14.0312 439.43 14.25L438.434 17.0039C438.059 16.8164 437.75 16.7227 437.508 16.7227C437.016 16.7227 436.598 17.0273 436.254 17.6367C435.918 18.2461 435.75 19.4414 435.75 21.2227L435.762 21.8438V27H432.586V14.25ZM450.445 14.25H453.633V27H450.445V25.6523C449.82 26.2461 449.191 26.6758 448.559 26.9414C447.934 27.1992 447.254 27.3281 446.52 27.3281C444.871 27.3281 443.445 26.6914 442.242 25.418C441.039 24.1367 440.438 22.5469 440.438 20.6484C440.438 18.6797 441.02 17.0664 442.184 15.8086C443.348 14.5508 444.762 13.9219 446.426 13.9219C447.191 13.9219 447.91 14.0664 448.582 14.3555C449.254 14.6445 449.875 15.0781 450.445 15.6562V14.25ZM447.082 16.875C446.09 16.875 445.266 17.2266 444.609 17.9297C443.953 18.625 443.625 19.5195 443.625 20.6133C443.625 21.7148 443.957 22.6211 444.621 23.332C445.293 24.043 446.117 24.3984 447.094 24.3984C448.102 24.3984 448.938 24.0508 449.602 23.3555C450.266 22.6523 450.598 21.7344 450.598 20.6016C450.598 19.4922 450.266 18.5938 449.602 17.9062C448.938 17.2188 448.098 16.875 447.082 16.875ZM458.121 9C458.684 9 459.164 9.20312 459.562 9.60938C459.969 10.0156 460.172 10.5078 460.172 11.0859C460.172 11.6562 459.973 12.1445 459.574 12.5508C459.176 12.9492 458.699 13.1484 458.145 13.1484C457.574 13.1484 457.086 12.9453 456.68 12.5391C456.281 12.125 456.082 11.625 456.082 11.0391C456.082 10.4766 456.281 9.99609 456.68 9.59766C457.078 9.19922 457.559 9 458.121 9ZM456.516 14.25H459.727V27H456.516V14.25ZM470.438 16.0312L468.457 18.0117C467.652 17.2148 466.922 16.8164 466.266 16.8164C465.906 16.8164 465.625 16.8945 465.422 17.0508C465.219 17.1992 465.117 17.3867 465.117 17.6133C465.117 17.7852 465.18 17.9453 465.305 18.0938C465.438 18.2344 465.758 18.4297 466.266 18.6797L467.438 19.2656C468.672 19.875 469.52 20.4961 469.98 21.1289C470.441 21.7617 470.672 22.5039 470.672 23.3555C470.672 24.4883 470.254 25.4336 469.418 26.1914C468.59 26.9492 467.477 27.3281 466.078 27.3281C464.219 27.3281 462.734 26.6016 461.625 25.1484L463.594 23.0039C463.969 23.4414 464.406 23.7969 464.906 24.0703C465.414 24.3359 465.863 24.4688 466.254 24.4688C466.676 24.4688 467.016 24.3672 467.273 24.1641C467.531 23.9609 467.66 23.7266 467.66 23.4609C467.66 22.9688 467.195 22.4883 466.266 22.0195L465.188 21.4805C463.125 20.4414 462.094 19.1406 462.094 17.5781C462.094 16.5703 462.48 15.7109 463.254 15C464.035 14.2812 465.031 13.9219 466.242 13.9219C467.07 13.9219 467.848 14.1055 468.574 14.4727C469.309 14.832 469.93 15.3516 470.438 16.0312ZM485.977 21.5508H475.699C475.848 22.457 476.242 23.1797 476.883 23.7188C477.531 24.25 478.355 24.5156 479.355 24.5156C480.551 24.5156 481.578 24.0977 482.438 23.2617L485.133 24.5273C484.461 25.4805 483.656 26.1875 482.719 26.6484C481.781 27.1016 480.668 27.3281 479.379 27.3281C477.379 27.3281 475.75 26.6992 474.492 25.4414C473.234 24.1758 472.605 22.5938 472.605 20.6953C472.605 18.75 473.23 17.1367 474.48 15.8555C475.738 14.5664 477.312 13.9219 479.203 13.9219C481.211 13.9219 482.844 14.5664 484.102 15.8555C485.359 17.1367 485.988 18.832 485.988 20.9414L485.977 21.5508ZM482.766 19.0312C482.555 18.3203 482.137 17.7422 481.512 17.2969C480.895 16.8516 480.176 16.6289 479.355 16.6289C478.465 16.6289 477.684 16.8789 477.012 17.3789C476.59 17.6914 476.199 18.2422 475.84 19.0312H482.766ZM498 9.32812H501.188V27H498V25.6523C497.375 26.2461 496.746 26.6758 496.113 26.9414C495.488 27.1992 494.809 27.3281 494.074 27.3281C492.426 27.3281 491 26.6914 489.797 25.418C488.594 24.1367 487.992 22.5469 487.992 20.6484C487.992 18.6797 488.574 17.0664 489.738 15.8086C490.902 14.5508 492.316 13.9219 493.98 13.9219C494.746 13.9219 495.465 14.0664 496.137 14.3555C496.809 14.6445 497.43 15.0781 498 15.6562V9.32812ZM494.637 16.875C493.645 16.875 492.82 17.2266 492.164 17.9297C491.508 18.625 491.18 19.5195 491.18 20.6133C491.18 21.7148 491.512 22.6211 492.176 23.332C492.848 24.043 493.672 24.3984 494.648 24.3984C495.656 24.3984 496.492 24.0508 497.156 23.3555C497.82 22.6523 498.152 21.7344 498.152 20.6016C498.152 19.4922 497.82 18.5938 497.156 17.9062C496.492 17.2188 495.652 16.875 494.637 16.875Z" fill="black"/>
<path d="M420.945 39C420.101 39 419.679 39.9844 420.288 40.5937L426.288 46.5937C426.663 46.9687 427.273 46.9687 427.648 46.5937L433.648 40.5937C434.257 39.9844 433.835 39 432.991 39L420.945 39Z" fill="black"/>
</svg>
