<svg width="772" height="73" viewBox="0 0 772 73" fill="none" xmlns="http://www.w3.org/2000/svg">
<rect x="52" y="61" width="720" height="12" rx="6" fill="#FFF0D2"/>
<rect x="52" y="61" width="31" height="12" rx="6" fill="#FFB31E"/>
<path d="M12.1758 11.7539L9.91406 13.957C8.88281 12.8945 7.86328 12.3633 6.85547 12.3633C6.26172 12.3633 5.77734 12.5234 5.40234 12.8438C5.03516 13.1562 4.85156 13.5195 4.85156 13.9336C4.85156 14.2852 5.01562 14.6328 5.34375 14.9766C5.66406 15.3281 6.3125 15.7031 7.28906 16.1016C9.02344 16.8203 10.2109 17.4336 10.8516 17.9414C11.4922 18.4492 11.9844 19.0586 12.3281 19.7695C12.6719 20.4805 12.8438 21.2773 12.8438 22.1602C12.8438 23.043 12.6602 23.8594 12.293 24.6094C11.9258 25.3594 11.4531 25.9531 10.875 26.3906C10.2969 26.8281 9.46484 27.1602 8.37891 27.3867V30.5156H6.17578V27.457C5.15234 27.3398 4.28125 27.082 3.5625 26.6836C2.57812 26.1367 1.66406 25.4102 0.820312 24.5039L3.04688 22.2188C4.47656 23.7422 5.85938 24.5039 7.19531 24.5039C7.875 24.5039 8.45703 24.2695 8.94141 23.8008C9.43359 23.3242 9.67969 22.7656 9.67969 22.125C9.67969 21.5859 9.52344 21.1133 9.21094 20.707C8.89062 20.3008 8.27344 19.8867 7.35938 19.4648C5.5 18.6055 4.24219 17.9258 3.58594 17.4258C2.92969 16.918 2.4375 16.3516 2.10938 15.7266C1.78906 15.0938 1.62891 14.4219 1.62891 13.7109C1.62891 12.5312 2.05859 11.5234 2.91797 10.6875C3.77734 9.84375 4.86328 9.39062 6.17578 9.32812V8.15625H8.37891V9.48047C9.13672 9.66016 9.77734 9.90234 10.3008 10.207C10.832 10.5117 11.457 11.0273 12.1758 11.7539ZM18.0117 14.0156H14.8594C15.0234 12.7422 15.4805 11.7188 16.2305 10.9453C17.2773 9.86719 18.5938 9.32812 20.1797 9.32812C21.5938 9.32812 22.7773 9.77734 23.7305 10.6758C24.6914 11.5742 25.1719 12.6406 25.1719 13.875C25.1719 14.6406 24.9609 15.3398 24.5391 15.9727C24.125 16.6055 23.5195 17.1172 22.7227 17.5078C23.7695 17.8203 24.5859 18.3672 25.1719 19.1484C25.7656 19.9219 26.0625 20.8359 26.0625 21.8906C26.0625 23.4375 25.4922 24.75 24.3516 25.8281C23.2109 26.8984 21.7578 27.4336 19.9922 27.4336C18.3203 27.4336 16.957 26.9297 15.9023 25.9219C14.8477 24.9062 14.2695 23.5273 14.168 21.7852H17.4141C17.5547 22.6758 17.8633 23.3398 18.3398 23.7773C18.8242 24.207 19.4336 24.4219 20.168 24.4219C20.9336 24.4219 21.5664 24.1758 22.0664 23.6836C22.5742 23.1914 22.8281 22.5898 22.8281 21.8789C22.8281 21.0977 22.4883 20.4375 21.8086 19.8984C21.1289 19.3594 20.1484 19.082 18.8672 19.0664V16.2539C19.6562 16.1914 20.2422 16.0703 20.625 15.8906C21.0156 15.7031 21.3164 15.4492 21.5273 15.1289C21.7461 14.8086 21.8555 14.4688 21.8555 14.1094C21.8555 13.6406 21.6914 13.2539 21.3633 12.9492C21.0352 12.6367 20.6055 12.4805 20.0742 12.4805C19.6055 12.4805 19.1797 12.625 18.7969 12.9141C18.4141 13.1953 18.1523 13.5625 18.0117 14.0156ZM31.0898 15.3164H27.8906C27.9766 13.457 28.5586 11.9961 29.6367 10.9336C30.7227 9.86328 32.1133 9.32812 33.8086 9.32812C34.8555 9.32812 35.7773 9.55078 36.5742 9.99609C37.3789 10.4336 38.0195 11.0703 38.4961 11.9062C38.9805 12.7344 39.2227 13.5781 39.2227 14.4375C39.2227 15.4609 38.9297 16.5625 38.3438 17.7422C37.7656 18.9219 36.7031 20.3164 35.1562 21.9258L33.2227 23.9648H39.3633V27H27.4219V25.4297L32.7539 19.9922C34.043 18.6875 34.8984 17.6406 35.3203 16.8516C35.75 16.0547 35.9648 15.3359 35.9648 14.6953C35.9648 14.0312 35.7422 13.4844 35.2969 13.0547C34.8594 12.6172 34.293 12.3984 33.5977 12.3984C32.8945 12.3984 32.3086 12.6602 31.8398 13.1836C31.3711 13.707 31.1211 14.418 31.0898 15.3164ZM43.5117 23.7539L45.7969 24.9023L42.9023 29.8477L41.3086 29.0859L43.5117 23.7539ZM54.0469 9.32812L56.8359 10.7227L53.8242 16.582C55.2852 16.582 56.5273 17.1055 57.5508 18.1523C58.5742 19.1992 59.0859 20.5 59.0859 22.0547C59.0859 23.5547 58.5586 24.8281 57.5039 25.875C56.457 26.9141 55.1914 27.4336 53.707 27.4336C52.1523 27.4336 50.8555 26.8945 49.8164 25.8164C48.7852 24.7305 48.2695 23.4883 48.2695 22.0898C48.2695 21.5586 48.3477 21.0234 48.5039 20.4844C48.668 19.9453 49.0391 19.1172 49.6172 18L54.0469 9.32812ZM53.6367 19.6875C53.0273 19.6875 52.5156 19.9102 52.1016 20.3555C51.6875 20.793 51.4805 21.3438 51.4805 22.0078C51.4805 22.6719 51.6953 23.2305 52.125 23.6836C52.5625 24.1367 53.0703 24.3633 53.6484 24.3633C54.2578 24.3633 54.7812 24.1406 55.2188 23.6953C55.6562 23.25 55.875 22.6875 55.875 22.0078C55.875 21.3438 55.6602 20.793 55.2305 20.3555C54.8086 19.9102 54.2773 19.6875 53.6367 19.6875ZM64.7227 15.3164H61.5234C61.6094 13.457 62.1914 11.9961 63.2695 10.9336C64.3555 9.86328 65.7461 9.32812 67.4414 9.32812C68.4883 9.32812 69.4102 9.55078 70.207 9.99609C71.0117 10.4336 71.6523 11.0703 72.1289 11.9062C72.6133 12.7344 72.8555 13.5781 72.8555 14.4375C72.8555 15.4609 72.5625 16.5625 71.9766 17.7422C71.3984 18.9219 70.3359 20.3164 68.7891 21.9258L66.8555 23.9648H72.9961V27H61.0547V25.4297L66.3867 19.9922C67.6758 18.6875 68.5312 17.6406 68.9531 16.8516C69.3828 16.0547 69.5977 15.3359 69.5977 14.6953C69.5977 14.0312 69.375 13.4844 68.9297 13.0547C68.4922 12.6172 67.9258 12.3984 67.2305 12.3984C66.5273 12.3984 65.9414 12.6602 65.4727 13.1836C65.0039 13.707 64.7539 14.418 64.7227 15.3164ZM75.4336 9.76172H86.7422V11.4844L78.9609 27.4336L76.1836 26.0859L82.6523 12.8438H75.4336V9.76172ZM95.0391 14.25H97.7812V15.8555C98.0781 15.2227 98.4727 14.7422 98.9648 14.4141C99.457 14.0859 99.9961 13.9219 100.582 13.9219C100.996 13.9219 101.43 14.0312 101.883 14.25L100.887 17.0039C100.512 16.8164 100.203 16.7227 99.9609 16.7227C99.4688 16.7227 99.0508 17.0273 98.707 17.6367C98.3711 18.2461 98.2031 19.4414 98.2031 21.2227L98.2148 21.8438V27H95.0391V14.25ZM112.898 14.25H116.086V27H112.898V25.6523C112.273 26.2461 111.645 26.6758 111.012 26.9414C110.387 27.1992 109.707 27.3281 108.973 27.3281C107.324 27.3281 105.898 26.6914 104.695 25.418C103.492 24.1367 102.891 22.5469 102.891 20.6484C102.891 18.6797 103.473 17.0664 104.637 15.8086C105.801 14.5508 107.215 13.9219 108.879 13.9219C109.645 13.9219 110.363 14.0664 111.035 14.3555C111.707 14.6445 112.328 15.0781 112.898 15.6562V14.25ZM109.535 16.875C108.543 16.875 107.719 17.2266 107.062 17.9297C106.406 18.625 106.078 19.5195 106.078 20.6133C106.078 21.7148 106.41 22.6211 107.074 23.332C107.746 24.043 108.57 24.3984 109.547 24.3984C110.555 24.3984 111.391 24.0508 112.055 23.3555C112.719 22.6523 113.051 21.7344 113.051 20.6016C113.051 19.4922 112.719 18.5938 112.055 17.9062C111.391 17.2188 110.551 16.875 109.535 16.875ZM120.574 9C121.137 9 121.617 9.20312 122.016 9.60938C122.422 10.0156 122.625 10.5078 122.625 11.0859C122.625 11.6562 122.426 12.1445 122.027 12.5508C121.629 12.9492 121.152 13.1484 120.598 13.1484C120.027 13.1484 119.539 12.9453 119.133 12.5391C118.734 12.125 118.535 11.625 118.535 11.0391C118.535 10.4766 118.734 9.99609 119.133 9.59766C119.531 9.19922 120.012 9 120.574 9ZM118.969 14.25H122.18V27H118.969V14.25ZM132.891 16.0312L130.91 18.0117C130.105 17.2148 129.375 16.8164 128.719 16.8164C128.359 16.8164 128.078 16.8945 127.875 17.0508C127.672 17.1992 127.57 17.3867 127.57 17.6133C127.57 17.7852 127.633 17.9453 127.758 18.0938C127.891 18.2344 128.211 18.4297 128.719 18.6797L129.891 19.2656C131.125 19.875 131.973 20.4961 132.434 21.1289C132.895 21.7617 133.125 22.5039 133.125 23.3555C133.125 24.4883 132.707 25.4336 131.871 26.1914C131.043 26.9492 129.93 27.3281 128.531 27.3281C126.672 27.3281 125.188 26.6016 124.078 25.1484L126.047 23.0039C126.422 23.4414 126.859 23.7969 127.359 24.0703C127.867 24.3359 128.316 24.4688 128.707 24.4688C129.129 24.4688 129.469 24.3672 129.727 24.1641C129.984 23.9609 130.113 23.7266 130.113 23.4609C130.113 22.9688 129.648 22.4883 128.719 22.0195L127.641 21.4805C125.578 20.4414 124.547 19.1406 124.547 17.5781C124.547 16.5703 124.934 15.7109 125.707 15C126.488 14.2812 127.484 13.9219 128.695 13.9219C129.523 13.9219 130.301 14.1055 131.027 14.4727C131.762 14.832 132.383 15.3516 132.891 16.0312ZM148.43 21.5508H138.152C138.301 22.457 138.695 23.1797 139.336 23.7188C139.984 24.25 140.809 24.5156 141.809 24.5156C143.004 24.5156 144.031 24.0977 144.891 23.2617L147.586 24.5273C146.914 25.4805 146.109 26.1875 145.172 26.6484C144.234 27.1016 143.121 27.3281 141.832 27.3281C139.832 27.3281 138.203 26.6992 136.945 25.4414C135.688 24.1758 135.059 22.5938 135.059 20.6953C135.059 18.75 135.684 17.1367 136.934 15.8555C138.191 14.5664 139.766 13.9219 141.656 13.9219C143.664 13.9219 145.297 14.5664 146.555 15.8555C147.812 17.1367 148.441 18.832 148.441 20.9414L148.43 21.5508ZM145.219 19.0312C145.008 18.3203 144.59 17.7422 143.965 17.2969C143.348 16.8516 142.629 16.6289 141.809 16.6289C140.918 16.6289 140.137 16.8789 139.465 17.3789C139.043 17.6914 138.652 18.2422 138.293 19.0312H145.219ZM160.453 9.32812H163.641V27H160.453V25.6523C159.828 26.2461 159.199 26.6758 158.566 26.9414C157.941 27.1992 157.262 27.3281 156.527 27.3281C154.879 27.3281 153.453 26.6914 152.25 25.418C151.047 24.1367 150.445 22.5469 150.445 20.6484C150.445 18.6797 151.027 17.0664 152.191 15.8086C153.355 14.5508 154.77 13.9219 156.434 13.9219C157.199 13.9219 157.918 14.0664 158.59 14.3555C159.262 14.6445 159.883 15.0781 160.453 15.6562V9.32812ZM157.09 16.875C156.098 16.875 155.273 17.2266 154.617 17.9297C153.961 18.625 153.633 19.5195 153.633 20.6133C153.633 21.7148 153.965 22.6211 154.629 23.332C155.301 24.043 156.125 24.3984 157.102 24.3984C158.109 24.3984 158.945 24.0508 159.609 23.3555C160.273 22.6523 160.605 21.7344 160.605 20.6016C160.605 19.4922 160.273 18.5938 159.609 17.9062C158.945 17.2188 158.105 16.875 157.09 16.875Z" fill="black"/>
<path d="M76.9446 39C76.1009 39 75.679 39.9844 76.2884 40.5937L82.2884 46.5937C82.6634 46.9687 83.2727 46.9687 83.6477 46.5937L89.6477 40.5937C90.2571 39.9844 89.8352 39 88.9915 39L76.9446 39Z" fill="black"/>
</svg>
