<svg width="746" height="76" viewBox="0 0 746 76" fill="none" xmlns="http://www.w3.org/2000/svg">
<rect x="26" y="64" width="720" height="12" rx="6" fill="#FFF0D2"/>
<rect x="26" y="64" width="40" height="12" rx="6" fill="#FFB31E"/>
<path d="M12.1758 11.7539L9.91406 13.957C8.88281 12.8945 7.86328 12.3633 6.85547 12.3633C6.26172 12.3633 5.77734 12.5234 5.40234 12.8438C5.03516 13.1562 4.85156 13.5195 4.85156 13.9336C4.85156 14.2852 5.01562 14.6328 5.34375 14.9766C5.66406 15.3281 6.3125 15.7031 7.28906 16.1016C9.02344 16.8203 10.2109 17.4336 10.8516 17.9414C11.4922 18.4492 11.9844 19.0586 12.3281 19.7695C12.6719 20.4805 12.8438 21.2773 12.8438 22.1602C12.8438 23.043 12.6602 23.8594 12.293 24.6094C11.9258 25.3594 11.4531 25.9531 10.875 26.3906C10.2969 26.8281 9.46484 27.1602 8.37891 27.3867V30.5156H6.17578V27.457C5.15234 27.3398 4.28125 27.082 3.5625 26.6836C2.57812 26.1367 1.66406 25.4102 0.820312 24.5039L3.04688 22.2188C4.47656 23.7422 5.85938 24.5039 7.19531 24.5039C7.875 24.5039 8.45703 24.2695 8.94141 23.8008C9.43359 23.3242 9.67969 22.7656 9.67969 22.125C9.67969 21.5859 9.52344 21.1133 9.21094 20.707C8.89062 20.3008 8.27344 19.8867 7.35938 19.4648C5.5 18.6055 4.24219 17.9258 3.58594 17.4258C2.92969 16.918 2.4375 16.3516 2.10938 15.7266C1.78906 15.0938 1.62891 14.4219 1.62891 13.7109C1.62891 12.5312 2.05859 11.5234 2.91797 10.6875C3.77734 9.84375 4.86328 9.39062 6.17578 9.32812V8.15625H8.37891V9.48047C9.13672 9.66016 9.77734 9.90234 10.3008 10.207C10.832 10.5117 11.457 11.0273 12.1758 11.7539ZM17.4609 9.76172H25.5352V12.7852H19.9102L19.207 15.9258C19.4023 15.8711 19.5938 15.832 19.7812 15.8086C19.9688 15.7773 20.1484 15.7617 20.3203 15.7617C21.8828 15.7617 23.1797 16.2969 24.2109 17.3672C25.25 18.4297 25.7695 19.793 25.7695 21.457C25.7695 23.1367 25.1953 24.5547 24.0469 25.7109C22.9062 26.8594 21.5156 27.4336 19.875 27.4336C18.4062 27.4336 17.1445 27.0156 16.0898 26.1797C15.0352 25.3438 14.3438 24.1992 14.0156 22.7461H17.4609C17.7266 23.2852 18.0742 23.6953 18.5039 23.9766C18.9414 24.25 19.4219 24.3867 19.9453 24.3867C20.6719 24.3867 21.2891 24.125 21.7969 23.6016C22.3047 23.0781 22.5586 22.4062 22.5586 21.5859C22.5586 20.7891 22.3203 20.1367 21.8438 19.6289C21.375 19.1133 20.8047 18.8555 20.1328 18.8555C19.7734 18.8555 19.418 18.9453 19.0664 19.125C18.7227 19.3047 18.3828 19.5742 18.0469 19.9336L15.375 19.3359L17.4609 9.76172ZM28.3477 9.76172H39.6562V11.4844L31.875 27.4336L29.0977 26.0859L35.5664 12.8438H28.3477V9.76172ZM47.3203 9.32812L50.1094 10.7227L47.0977 16.582C48.5586 16.582 49.8008 17.1055 50.8242 18.1523C51.8477 19.1992 52.3594 20.5 52.3594 22.0547C52.3594 23.5547 51.832 24.8281 50.7773 25.875C49.7305 26.9141 48.4648 27.4336 46.9805 27.4336C45.4258 27.4336 44.1289 26.8945 43.0898 25.8164C42.0586 24.7305 41.543 23.4883 41.543 22.0898C41.543 21.5586 41.6211 21.0234 41.7773 20.4844C41.9414 19.9453 42.3125 19.1172 42.8906 18L47.3203 9.32812ZM46.9102 19.6875C46.3008 19.6875 45.7891 19.9102 45.375 20.3555C44.9609 20.793 44.7539 21.3438 44.7539 22.0078C44.7539 22.6719 44.9688 23.2305 45.3984 23.6836C45.8359 24.1367 46.3438 24.3633 46.9219 24.3633C47.5312 24.3633 48.0547 24.1406 48.4922 23.6953C48.9297 23.25 49.1484 22.6875 49.1484 22.0078C49.1484 21.3438 48.9336 20.793 48.5039 20.3555C48.082 19.9102 47.5508 19.6875 46.9102 19.6875ZM61.4062 14.25H64.1484V15.8555C64.4453 15.2227 64.8398 14.7422 65.332 14.4141C65.8242 14.0859 66.3633 13.9219 66.9492 13.9219C67.3633 13.9219 67.7969 14.0312 68.25 14.25L67.2539 17.0039C66.8789 16.8164 66.5703 16.7227 66.3281 16.7227C65.8359 16.7227 65.418 17.0273 65.0742 17.6367C64.7383 18.2461 64.5703 19.4414 64.5703 21.2227L64.582 21.8438V27H61.4062V14.25ZM79.2656 14.25H82.4531V27H79.2656V25.6523C78.6406 26.2461 78.0117 26.6758 77.3789 26.9414C76.7539 27.1992 76.0742 27.3281 75.3398 27.3281C73.6914 27.3281 72.2656 26.6914 71.0625 25.418C69.8594 24.1367 69.2578 22.5469 69.2578 20.6484C69.2578 18.6797 69.8398 17.0664 71.0039 15.8086C72.168 14.5508 73.582 13.9219 75.2461 13.9219C76.0117 13.9219 76.7305 14.0664 77.4023 14.3555C78.0742 14.6445 78.6953 15.0781 79.2656 15.6562V14.25ZM75.9023 16.875C74.9102 16.875 74.0859 17.2266 73.4297 17.9297C72.7734 18.625 72.4453 19.5195 72.4453 20.6133C72.4453 21.7148 72.7773 22.6211 73.4414 23.332C74.1133 24.043 74.9375 24.3984 75.9141 24.3984C76.9219 24.3984 77.7578 24.0508 78.4219 23.3555C79.0859 22.6523 79.418 21.7344 79.418 20.6016C79.418 19.4922 79.0859 18.5938 78.4219 17.9062C77.7578 17.2188 76.918 16.875 75.9023 16.875ZM86.9414 9C87.5039 9 87.9844 9.20312 88.3828 9.60938C88.7891 10.0156 88.9922 10.5078 88.9922 11.0859C88.9922 11.6562 88.793 12.1445 88.3945 12.5508C87.9961 12.9492 87.5195 13.1484 86.9648 13.1484C86.3945 13.1484 85.9062 12.9453 85.5 12.5391C85.1016 12.125 84.9023 11.625 84.9023 11.0391C84.9023 10.4766 85.1016 9.99609 85.5 9.59766C85.8984 9.19922 86.3789 9 86.9414 9ZM85.3359 14.25H88.5469V27H85.3359V14.25ZM99.2578 16.0312L97.2773 18.0117C96.4727 17.2148 95.7422 16.8164 95.0859 16.8164C94.7266 16.8164 94.4453 16.8945 94.2422 17.0508C94.0391 17.1992 93.9375 17.3867 93.9375 17.6133C93.9375 17.7852 94 17.9453 94.125 18.0938C94.2578 18.2344 94.5781 18.4297 95.0859 18.6797L96.2578 19.2656C97.4922 19.875 98.3398 20.4961 98.8008 21.1289C99.2617 21.7617 99.4922 22.5039 99.4922 23.3555C99.4922 24.4883 99.0742 25.4336 98.2383 26.1914C97.4102 26.9492 96.2969 27.3281 94.8984 27.3281C93.0391 27.3281 91.5547 26.6016 90.4453 25.1484L92.4141 23.0039C92.7891 23.4414 93.2266 23.7969 93.7266 24.0703C94.2344 24.3359 94.6836 24.4688 95.0742 24.4688C95.4961 24.4688 95.8359 24.3672 96.0938 24.1641C96.3516 23.9609 96.4805 23.7266 96.4805 23.4609C96.4805 22.9688 96.0156 22.4883 95.0859 22.0195L94.0078 21.4805C91.9453 20.4414 90.9141 19.1406 90.9141 17.5781C90.9141 16.5703 91.3008 15.7109 92.0742 15C92.8555 14.2812 93.8516 13.9219 95.0625 13.9219C95.8906 13.9219 96.668 14.1055 97.3945 14.4727C98.1289 14.832 98.75 15.3516 99.2578 16.0312ZM114.797 21.5508H104.52C104.668 22.457 105.062 23.1797 105.703 23.7188C106.352 24.25 107.176 24.5156 108.176 24.5156C109.371 24.5156 110.398 24.0977 111.258 23.2617L113.953 24.5273C113.281 25.4805 112.477 26.1875 111.539 26.6484C110.602 27.1016 109.488 27.3281 108.199 27.3281C106.199 27.3281 104.57 26.6992 103.312 25.4414C102.055 24.1758 101.426 22.5938 101.426 20.6953C101.426 18.75 102.051 17.1367 103.301 15.8555C104.559 14.5664 106.133 13.9219 108.023 13.9219C110.031 13.9219 111.664 14.5664 112.922 15.8555C114.18 17.1367 114.809 18.832 114.809 20.9414L114.797 21.5508ZM111.586 19.0312C111.375 18.3203 110.957 17.7422 110.332 17.2969C109.715 16.8516 108.996 16.6289 108.176 16.6289C107.285 16.6289 106.504 16.8789 105.832 17.3789C105.41 17.6914 105.02 18.2422 104.66 19.0312H111.586ZM126.82 9.32812H130.008V27H126.82V25.6523C126.195 26.2461 125.566 26.6758 124.934 26.9414C124.309 27.1992 123.629 27.3281 122.895 27.3281C121.246 27.3281 119.82 26.6914 118.617 25.418C117.414 24.1367 116.812 22.5469 116.812 20.6484C116.812 18.6797 117.395 17.0664 118.559 15.8086C119.723 14.5508 121.137 13.9219 122.801 13.9219C123.566 13.9219 124.285 14.0664 124.957 14.3555C125.629 14.6445 126.25 15.0781 126.82 15.6562V9.32812ZM123.457 16.875C122.465 16.875 121.641 17.2266 120.984 17.9297C120.328 18.625 120 19.5195 120 20.6133C120 21.7148 120.332 22.6211 120.996 23.332C121.668 24.043 122.492 24.3984 123.469 24.3984C124.477 24.3984 125.312 24.0508 125.977 23.3555C126.641 22.6523 126.973 21.7344 126.973 20.6016C126.973 19.4922 126.641 18.5938 125.977 17.9062C125.312 17.2188 124.473 16.875 123.457 16.875Z" fill="black"/>
<path d="M58.9446 39C58.1009 39 57.679 39.9844 58.2884 40.5937L64.2884 46.5937C64.6634 46.9687 65.2727 46.9687 65.6477 46.5937L71.6477 40.5937C72.2571 39.9844 71.8352 39 70.9915 39L58.9446 39Z" fill="black"/>
</svg>
